<svg width="24" height="24" viewBox="0 0 24 24" fill="none" xmlns="http://www.w3.org/2000/svg">
<g clip-path="url(#clip0_528_7387)">
<path d="M17.6129 15.5152C19.0653 13.5332 19.7159 11.0759 19.4343 8.6349C19.1528 6.19389 17.96 3.94918 16.0945 2.34987C14.2291 0.750556 11.8285 -0.0854205 9.37314 0.00918925C6.91777 0.103799 4.58866 1.12202 2.85178 2.86014C1.11491 4.59825 0.0983577 6.92809 0.00550496 9.38352C-0.0873478 11.839 0.750346 14.2389 2.35099 16.1032C3.95164 17.9676 6.1972 19.1588 8.63841 19.4386C11.0796 19.7183 13.5365 19.066 15.5174 17.6122H15.5159C15.5609 17.6722 15.6089 17.7292 15.6629 17.7847L21.4379 23.5597C21.7191 23.8411 22.1007 23.9993 22.4986 23.9995C22.8965 23.9996 23.2782 23.8417 23.5596 23.5604C23.8411 23.2792 23.9993 22.8976 23.9994 22.4997C23.9996 22.1018 23.8416 21.7201 23.5604 21.4387L17.7854 15.6637C17.7318 15.6094 17.6741 15.5592 17.6129 15.5137V15.5152ZM17.9999 9.74917C17.9999 10.8326 17.7865 11.9054 17.3719 12.9063C16.9573 13.9072 16.3496 14.8167 15.5835 15.5828C14.8174 16.3489 13.908 16.9566 12.907 17.3712C11.9061 17.7858 10.8333 17.9992 9.74988 17.9992C8.66648 17.9992 7.59368 17.7858 6.59274 17.3712C5.59181 16.9566 4.68233 16.3489 3.91625 15.5828C3.15017 14.8167 2.54248 13.9072 2.12788 12.9063C1.71327 11.9054 1.49988 10.8326 1.49988 9.74917C1.49988 7.56114 2.36908 5.46272 3.91625 3.91554C5.46343 2.36837 7.56185 1.49917 9.74988 1.49917C11.9379 1.49917 14.0363 2.36837 15.5835 3.91554C17.1307 5.46272 17.9999 7.56114 17.9999 9.74917Z" fill="white"/>
</g>
<defs>
<clipPath id="clip0_528_7387">
<rect width="24" height="24" fill="white"/>
</clipPath>
</defs>
</svg>
